<?xml version="1.0" encoding="utf-8"?>
<!-- Generator: Adobe Illustrator 26.0.0, SVG Export Plug-In . SVG Version: 6.00 Build 0)  -->
<svg version="1.1" id="Layer_1" xmlns="http://www.w3.org/2000/svg" xmlns:xlink="http://www.w3.org/1999/xlink" x="0px" y="0px"
	 viewBox="493 288 602 208" style="enable-background:new 0 0 1280 769;" xml:space="preserve">
<style type="text/css">
	.st0{fill:#2C5F34;}
	.st1{fill:#F0EBD8;}
	.st2{fill:#F6F6F6;}
	.st3{fill:#254117;}
	.st4{fill:#06402B;}
</style>
<g>
	<g>
		<g>
			<g>
				<g>
					<g>
						<g>
							<path class="st4" d="M639.36,331.25v12.07h-28.28V332.7h-73.49v22.69h75.11c7.32,0,13.6,2.61,18.82,7.83
								c5.22,5.22,7.83,11.5,7.83,18.82v25.58c0,7.33-2.61,13.6-7.83,18.82c-5.22,5.22-11.5,7.83-18.82,7.83h-76.37
								c-7.32,0-13.6-2.58-18.82-7.74c-5.22-5.16-7.83-11.47-7.83-18.91v-12.07h27.92v10.63h73.49v-22.69h-74.75
								c-7.32,0-13.6-2.58-18.82-7.74c-5.22-5.16-7.83-11.47-7.83-18.91v-25.58c0-7.44,2.61-13.75,7.83-18.91
								c5.22-5.16,11.5-7.75,18.82-7.75h76.37c7.32,0,13.6,2.61,18.82,7.83C636.75,317.66,639.36,323.93,639.36,331.25z"/>
						</g>
					</g>
					<g>
						<g>
							<path class="st4" d="M685.65,304.6h76.19c7.44,0,13.78,2.61,19,7.83c5.22,5.22,7.83,11.5,7.83,18.82v103.02h-28.28v-41.79
								h-73.49v41.79h-27.92V331.25c0-7.44,2.58-13.75,7.75-18.91C671.9,307.18,678.2,304.6,685.65,304.6z M686.91,364.39h73.49
								v-31.7h-73.49V364.39z"/>
						</g>
					</g>
					<g>
						<g>
							<path class="st4" d="M938.88,331.25v12.25H910.6V332.7h-73.49v73.49h73.49v-19.45h-28.1v-28.1h56.37v48.99
								c0,7.33-2.61,13.6-7.83,18.82c-5.22,5.22-11.56,7.83-19,7.83h-76.19c-7.45,0-13.75-2.58-18.91-7.74
								c-5.16-5.16-7.74-11.47-7.74-18.91v-76.37c0-7.44,2.58-13.75,7.74-18.91c5.16-5.16,11.47-7.75,18.91-7.75h76.19
								c7.44,0,13.78,2.61,19,7.83C936.27,317.66,938.88,323.93,938.88,331.25z"/>
						</g>
					</g>
					<g>
						<g>
							<path class="st4" d="M1078.83,304.6v28.1h-91.5v22.69H1061v28.1h-73.66v22.69h91.5v28.1H959.05V304.6H1078.83z"/>
						</g>
					</g>
				</g>
				<g>
					<g>
						<path class="st4" d="M526.61,461.06v19.62h-3.57v-8.37h-9.8v8.37h-3.57v-19.62h3.57v8h9.8v-8H526.61z"/>
						<g>
							<g>
								<path class="st4" d="M533.3,472.31v-11.25h3.57v11.14c0,3.26,2.11,5.6,5.08,5.6c3,0,5.11-2.34,5.11-5.6v-11.14h3.54v11.25
									c0,5.11-3.57,8.71-8.65,8.71C536.9,481.03,533.3,477.43,533.3,472.31z"/>
							</g>
						</g>
						<g>
							<g>
								<path class="st4" d="M557.54,461.06h3.57l10.37,13.8v-13.8h3.54v19.62h-3.54l-10.37-13.8v13.8h-3.57V461.06z"/>
							</g>
						</g>
						<g>
							<g>
								<path class="st4" d="M587.19,464.32h-6.28v-3.26h16.11v3.26h-6.28v16.36h-3.54V464.32z"/>
							</g>
						</g>
						<g>
							<g>
								<path class="st4" d="M602.7,461.06h3.54v19.62h-3.54V461.06z"/>
							</g>
						</g>
						<g>
							<g>
								<path class="st4" d="M613.18,461.06h3.57l10.37,13.8v-13.8h3.54v19.62h-3.54l-10.37-13.8v13.8h-3.57V461.06z"/>
							</g>
						</g>
						<g>
							<g>
								<path class="st4" d="M646.6,469.89h8.37v7.94c-1.88,1.97-4.94,3.2-7.8,3.2c-5.63,0-10.37-4.65-10.37-10.17
									s4.74-10.14,10.37-10.14c2.86,0,5.91,1.2,7.8,3.17l-2.54,2.37c-1.23-1.43-3.34-2.28-5.26-2.28c-3.66,0-6.74,3.14-6.74,6.88
									c0,3.77,3.08,6.91,6.74,6.91c1.49,0,3.08-0.51,4.31-1.4v-3.57h-4.88V469.89z"/>
							</g>
						</g>
						<g>
							<g>
								<path class="st4" d="M685.38,481.05l-2.23-2.31c-1.63,1.46-3.51,2.28-5.8,2.28c-3.71,0-6.45-2.11-6.45-5.65
									c0-2.54,1.31-4.23,4.31-5.6c-1.09-1.51-1.49-2.63-1.49-4.08c0-2.69,2.31-4.86,5.37-4.86c3.03,0,5.23,2.11,5.23,4.83
									c0,2.28-1.57,3.51-4.54,4.85c1,1.17,2.09,2.37,3.48,3.86c0.77-1.14,1.46-2.46,2-3.86l2.66,1.26
									c-0.86,1.74-1.74,3.31-2.71,4.66c0.91,0.97,1.97,2.06,3.14,3.28L685.38,481.05z M681.24,476.74
									c-1.94-2.03-3.31-3.57-4.43-4.88c-1.63,0.89-2.46,1.94-2.46,3.34c0,1.91,1.54,3.06,3.34,3.06
									C678.95,478.26,680.13,477.68,681.24,476.74z M676.84,465.69c0,0.97,0.43,1.83,1.34,2.94c2.17-0.88,3.05-1.54,3.05-2.94
									c0-1.29-0.88-2.26-2.08-2.26C677.84,463.43,676.84,464.32,676.84,465.69z"/>
							</g>
						</g>
						<g>
							<g>
								<path class="st4" d="M708.09,464.32v4.97h10.14v3.26h-10.14v8.14h-3.57v-19.62h14.77v3.26H708.09z"/>
							</g>
						</g>
						<g>
							<g>
								<path class="st4" d="M725.02,461.06h3.54v19.62h-3.54V461.06z"/>
							</g>
						</g>
						<g>
							<g>
								<path class="st4" d="M734.1,477.83l2.06-2.54c1.8,1.63,3.88,2.66,6.45,2.66c2.43,0,3.68-1.2,3.68-2.6
									c0-1.63-1.4-2.17-4.54-2.91c-4.06-0.94-6.88-2.11-6.88-5.8c0-3.43,2.91-5.94,7.05-5.94c3.11,0,5.45,1.06,7.43,2.74
									l-1.94,2.63c-1.71-1.49-3.68-2.31-5.63-2.31c-1.97,0-3.31,1.2-3.31,2.57c0,1.6,1.46,2.17,4.57,2.89
									c4.09,0.91,6.83,2.23,6.83,5.8c0,3.51-2.68,6-7.37,6C739.13,481,736.27,479.86,734.1,477.83z"/>
							</g>
						</g>
						<g>
							<g>
								<path class="st4" d="M772.63,461.06v19.62h-3.57v-8.37h-9.8v8.37h-3.57v-19.62h3.57v8h9.8v-8H772.63z"/>
							</g>
						</g>
						<g>
							<g>
								<path class="st4" d="M779.31,461.06h3.54v19.62h-3.54V461.06z"/>
							</g>
						</g>
						<g>
							<g>
								<path class="st4" d="M789.8,461.06h3.57l10.37,13.8v-13.8h3.54v19.62h-3.54l-10.37-13.8v13.8h-3.57V461.06z"/>
							</g>
						</g>
						<g>
							<g>
								<path class="st4" d="M823.21,469.89h8.37v7.94c-1.88,1.97-4.94,3.2-7.8,3.2c-5.63,0-10.37-4.65-10.37-10.17
									s4.74-10.14,10.37-10.14c2.86,0,5.91,1.2,7.8,3.17l-2.54,2.37c-1.23-1.43-3.34-2.28-5.26-2.28c-3.66,0-6.74,3.14-6.74,6.88
									c0,3.77,3.08,6.91,6.74,6.91c1.49,0,3.08-0.51,4.31-1.4v-3.57h-4.88V469.89z"/>
							</g>
						</g>
						<g>
							<g>
								<path class="st4" d="M848.66,461.06h3.54v19.62h-3.54V461.06z"/>
							</g>
						</g>
						<g>
							<g>
								<path class="st4" d="M859.14,461.06h3.57l10.37,13.8v-13.8h3.54v19.62h-3.54l-10.37-13.8v13.8h-3.57V461.06z"/>
							</g>
						</g>
						<g>
							<g>
								<path class="st4" d="M888.78,464.32h-6.28v-3.26h16.11v3.26h-6.28v16.36h-3.54V464.32z"/>
							</g>
						</g>
						<g>
							<g>
								<path class="st4" d="M907.81,464.32v4.74h10.14v3.25h-10.14v5.11H919v3.26h-14.77v-19.62H919v3.26H907.81z"/>
							</g>
						</g>
						<g>
							<g>
								<path class="st4" d="M938.45,477.43v3.26h-13.62v-19.62h3.54v16.36H938.45z"/>
							</g>
						</g>
						<g>
							<g>
								<path class="st4" d="M957.36,477.43v3.26h-13.62v-19.62h3.54v16.36H957.36z"/>
							</g>
						</g>
						<g>
							<g>
								<path class="st4" d="M962.87,461.06h3.54v19.62h-3.54V461.06z"/>
							</g>
						</g>
						<g>
							<g>
								<path class="st4" d="M982.15,469.89h8.37v7.94c-1.88,1.97-4.94,3.2-7.8,3.2c-5.63,0-10.37-4.65-10.37-10.17
									s4.74-10.14,10.37-10.14c2.86,0,5.91,1.2,7.8,3.17l-2.54,2.37c-1.23-1.43-3.34-2.28-5.26-2.28c-3.66,0-6.74,3.14-6.74,6.88
									c0,3.77,3.08,6.91,6.74,6.91c1.49,0,3.08-0.51,4.31-1.4v-3.57h-4.88V469.89z"/>
							</g>
						</g>
						<g>
							<g>
								<path class="st4" d="M1000.45,464.32v4.74h10.14v3.25h-10.14v5.11h11.2v3.26h-14.77v-19.62h14.77v3.26H1000.45z"/>
							</g>
						</g>
						<g>
							<g>
								<path class="st4" d="M1017.9,461.06h3.57l10.37,13.8v-13.8h3.54v19.62h-3.54l-10.37-13.8v13.8h-3.57V461.06z"/>
							</g>
						</g>
						<g>
							<g>
								<path class="st4" d="M1041.52,470.86c0-5.51,4.71-10.14,10.31-10.14c2.89,0,5.51,1.23,7.4,3.17l-2.54,2.37
									c-1.2-1.4-2.97-2.28-4.86-2.28c-3.63,0-6.68,3.14-6.68,6.88c0,3.77,3.05,6.91,6.68,6.91c1.91,0,3.66-0.88,4.88-2.28
									l2.51,2.34c-1.88,1.97-4.51,3.2-7.4,3.2C1046.23,481.03,1041.52,476.37,1041.52,470.86z"/>
							</g>
						</g>
						<g>
							<g>
								<path class="st4" d="M1068.11,464.32v4.74h10.14v3.25h-10.14v5.11h11.2v3.26h-14.77v-19.62h14.77v3.26H1068.11z"/>
							</g>
						</g>
					</g>
				</g>
			</g>
		</g>
	</g>
	<path class="st4" d="M326.25,363.4c-2.9,2.54-59.09,53.41-45.26,120.73c6.58,32.07,25.98,52.91,35.67,61.97
		c7.51-7.16,28.47-29,34.57-64.45c7.39-42.97-12.31-75.44-17.21-83.04c6.62,24.81,15.4,73.8-10.99,111.8
		c-1.9,2.74-4.02,5.46-6.37,8.14c-5.76-4.88-10.08-10.05-13.36-15.15C270.14,451.78,321.21,371.15,326.25,363.4z"/>
	<path class="st4" d="M341.95,432.72l-8.17,7.8l0.23-41.91c0,0,5.74,11.15,9.96,24.19c4.22,13.04,4.59,18.64,4.59,18.64"/>
	<path class="st4" d="M300.13,482.06c0,0,2,10.95,7.02,17.35c0,0,3.17-4.68,3.37-9.09S300.13,482.06,300.13,482.06z"/>
	<path class="st4" d="M279.76,498.74l-25.03-8c0,0,8.9-6.33,13.31-24.61c2.56-10.63,4.48-20.91,8.37-27.89
		c-3.1,14.32-3.79,30.09-0.34,46.89C277.05,489.9,278.3,494.43,279.76,498.74z"/>
	<path class="st4" d="M230.95,337.23l-4.33-6.44c0,0-7.2-20.71-1.62-45.8s16.55-37.18,16.55-37.18s-12.08,26.4-11.15,44.71
		c0.93,18.31,17.47,55.68,17.47,55.68"/>
	<path class="st2" d="M227.32,284.44c0,0-2.04,11.53-2.14,23.52c-0.09,11.99,4.55,26.03,4.55,26.03s-3.63-15.89-3.35-27.61
		C226.67,294.66,227.32,284.44,227.32,284.44z"/>
	<path class="st4" d="M307.92,377.14c-3.09,3.61-6.3,7.77-9.16,12.25l-6.92-0.84l-0.12-0.02c0,0-0.22-4.03-3.25-8.68
		c-0.01-0.01-0.01-0.02-0.01-0.02c-2.58-3.92-7.16-8.29-15.33-11.01c-17.84-5.95-66.36-26.96-71.38-50.57
		c-5.02-23.61,8.74-40.34,11.15-65.25c2.42-24.91,27.51-33.46,27.51-33.46s-18.4,12.83-21.01,42.38
		c-2.6,29.56-4.09,34.95-4.09,34.95s18.31-8.92,24.44-14.22c6.02-5.2,14.19-16.93,14.5-17.36c-0.24,0.66-7.9,21.86-19.88,29.82
		c-12.18,8.09-22.12,16.92-19.89,24.26c2.23,7.34,39.32,29.84,52.89,32.53s15.8-2.04,16.55-12.36c0.74-10.32,3.07-24.26,3.07-24.26
		s2.04,14.87,2.7,26.67c0.65,11.81-0.1,18.31,7.81,22.78c2.23,1.26,4.65,3.94,6.96,7.14C305.65,373.54,306.82,375.33,307.92,377.14z
		"/>
	<path class="st2" d="M251.3,354.06c0,0,7.34,5.11,19.61,8.64c12.27,3.53,20.73,12.36,20.73,12.36s-6.41-7.9-14.78-13.01
		C268.5,356.94,251.3,354.06,251.3,354.06z"/>
	<path class="st2" d="M207.8,321.25c0,0-3.9-6.23-2.97-16.36c0.93-10.13,6.79-28.44,6.79-28.44s-5.76,25.93-5.11,31.79
		S207.8,321.25,207.8,321.25z"/>
	<path class="st2" d="M215.59,249.7c0,0,0.56-6.69,5.44-13.11c4.88-6.41,7.25-8.71,7.25-8.71S218.59,239.03,215.59,249.7z"/>
	<path class="st2" d="M238.94,289.17c0,0,4.09-3.95,6.18-7.62s2.74-5.58,2.74-5.58S243.31,283.96,238.94,289.17z"/>
	<path class="st4" d="M400.71,337.23l4.33-6.44c0,0,7.2-20.71,1.62-45.8s-16.55-37.18-16.55-37.18s12.08,26.4,11.15,44.71
		c-0.93,18.31-17.47,55.68-17.47,55.68"/>
	<path class="st2" d="M404.33,284.44c0,0,2.04,11.53,2.14,23.52c0.09,11.99-4.55,26.03-4.55,26.03s3.63-15.89,3.35-27.61
		C404.99,294.66,404.33,284.44,404.33,284.44z"/>
	<path class="st4" d="M303.85,421.61c4.95-11.23,13.75-26.76,29.75-39.11c9.06-7,16.12-9.65,24.92-13.66
		c35.68-16.27,66.4-27.11,71.39-50.56c5.02-23.61-8.74-40.34-11.15-65.25c-2.42-24.91-27.51-33.46-27.51-33.46
		s18.4,12.83,21.01,42.39c2.6,29.56,4.09,34.95,4.09,34.95s-18.31-8.92-24.45-14.22c-6.13-5.3-14.5-17.38-14.5-17.38
		s7.71,21.75,19.89,29.84c12.18,8.09,22.12,16.92,19.89,24.26c-2.23,7.34-39.32,29.84-52.89,32.53s-15.8-2.04-16.55-12.36
		c-0.74-10.32-3.07-24.26-3.07-24.26s-2.04,14.87-2.7,26.68c-0.48,8.73-0.2,14.56-3.21,18.81c-1.14,1.6-1.81,1.41-4.6,3.97
		c-2.8,2.57-5.44,5.55-9.36,11.29c-3.44,5.03-8.15,11.91-12.82,22.16C309.23,404.21,306.19,412.09,303.85,421.61z"/>
	<path class="st2" d="M380.35,354.06c0,0-7.34,5.11-19.61,8.64c-12.27,3.53-20.73,12.36-20.73,12.36s6.41-7.9,14.78-13.01
		C363.16,356.94,380.35,354.06,380.35,354.06z"/>
	<path class="st2" d="M423.85,321.25c0,0,3.9-6.23,2.97-16.36c-0.93-10.13-6.79-28.44-6.79-28.44s5.76,25.93,5.11,31.79
		S423.85,321.25,423.85,321.25z"/>
	<path class="st2" d="M416.07,249.7c0,0-0.56-6.69-5.44-13.11c-4.88-6.41-7.25-8.71-7.25-8.71S413.07,239.03,416.07,249.7z"/>
	<path class="st2" d="M392.72,289.17c0,0-4.09-3.95-6.18-7.62s-2.74-5.58-2.74-5.58S388.35,283.96,392.72,289.17z"/>
	<path class="st4" d="M307.92,377.14c-3.09,3.61-6.3,7.77-9.16,12.25c-0.43,0.67-0.85,1.35-1.26,2.03
		c-9.47,15.81-13.91,30.18-13.91,30.18s-1.61-8.12,4.45-23c2.44-5.98,3.01-7.45,2.48-11.25c-0.76-5.44-1.87-7.28-2.05-7.5
		c-0.01-0.01-0.01-0.02-0.01-0.02l15.98-7.96C305.65,373.54,306.82,375.33,307.92,377.14z"/>
	<path class="st4" d="M347.47,282.48c0,17.48-14.17,31.64-31.64,31.64s-31.64-14.16-31.64-31.64c0-17.47,14.17-31.63,31.64-31.63
		c0.9,0,1.78,0.04,2.65,0.11c-13,1.18-23.2,12.11-23.2,25.45c0,14.11,11.45,25.56,25.56,25.56c14.12,0,25.56-11.45,25.56-25.56
		c0-0.86-0.05-1.73-0.14-2.58C347.05,276.59,347.47,279.49,347.47,282.48z"/>
</g>
</svg>
